# xmcd
#
# Track frame offsets:
# 150
# 23190
# 30533
# 55768
# 76327
# 96765
# 110744
# 129243
# 145401
# 163816
# 180444
# 196042
# 207514
# 234998
# 255669
# 267848
# 294183
# 312066
#
# Disc length: 4333 seconds
#
#
# Revision: 2
# Processed by: cddbd v1.5.2PL0 Copyright (c) Steve Scherf et al.
# Submitted via: FreeRIP 2.945 
#
DISCID=ef10eb12
DTITLE=John Denver - Sunshine On My Shoulders
DYEAR=2001
DGENRE=Country
TTITLE0=Sunshine On My Shoulders
TTITLE1=Deal With The Ladies
TTITLE2=Amazon
TTITLE3=Eclipse
TTITLE4=Earth Day Every Day (Celebrate)
TTITLE5=Ancient Rhymes
TTITLE6=Tenderly Calling
TTITLE7=Falling Leaves (The Refugees)
TTITLE8=Islands
TTITLE9=Children Of The Universe
TTITLE10=Postcard From Paris
TTITLE11=In A Faraway Land
TTITLE12=A Little Further North
TTITLE13=Sing Australia
TTITLE14=Alaska And Me
TTITLE15=Stoneheaven Sunset
TTITLE16=Potter's Wheel (Live)
TTITLE17=The Flower That Shattered The Stone (Reprise)
EXTD=
EXTT0=
EXTT1=
EXTT2=
EXTT3=
EXTT4=
EXTT5=
EXTT6=
EXTT7=
EXTT8=
EXTT9=
EXTT10=
EXTT11=
EXTT12=
EXTT13=
EXTT14=
EXTT15=
EXTT16=
EXTT17=
PLAYORDER=
